<svg width="327px" height="138px" viewBox="0 0 327 138" version="1.1" xmlns="http://www.w3.org/2000/svg" xmlns:xlink="http://www.w3.org/1999/xlink">
    <g id="desktop" stroke="none" stroke-width="1" fill="none" fill-rule="evenodd">
        <g id="menu---desktop" transform="translate(-629.000000, -562.000000)" fill="#D8D8D8">
            <g id="Group-4" transform="translate(629.000000, 562.000000)">
                <circle id="Oval" transform="translate(211.000000, 3.000000) rotate(-270.000000) translate(-211.000000, -3.000000) " cx="211" cy="3" r="2"></circle>
                <circle id="Oval" transform="translate(211.000000, 36.000000) rotate(-270.000000) translate(-211.000000, -36.000000) " cx="211" cy="36" r="2"></circle>
                <g id="Group" transform="translate(209.000000, 68.000000)">
                    <circle id="Oval" transform="translate(2.000000, 2.000000) rotate(-270.000000) translate(-2.000000, -2.000000) " cx="2" cy="2" r="2"></circle>
                    <circle id="Oval" cx="31" cy="2" r="2"></circle>
                    <circle id="Oval" cx="59" cy="2" r="2"></circle>
                    <circle id="Oval" cx="87" cy="2" r="2"></circle>
                    <circle id="Oval" cx="115" cy="2" r="2"></circle>
                </g>
                <g id="Group-5" transform="translate(209.000000, 101.000000)">
                    <ellipse id="Oval" transform="translate(2.201493, 2.000000) rotate(-270.000000) translate(-2.201493, -2.000000) " cx="2.20149254" cy="2" rx="2" ry="2.20149254"></ellipse>
                    <ellipse id="Oval" cx="30.8208955" cy="2" rx="2.20149254" ry="2"></ellipse>
                    <ellipse id="Oval" cx="59" cy="2" rx="2.20149254" ry="2"></ellipse>
                    <ellipse id="Oval" cx="87.1791045" cy="2" rx="2.20149254" ry="2"></ellipse>
                    <ellipse id="Oval" cx="115.358209" cy="2" rx="2.20149254" ry="2"></ellipse>
                </g>
                <g id="Group-5" transform="translate(209.000000, 134.000000)">
                    <ellipse id="Oval" transform="translate(2.201493, 2.000000) rotate(-270.000000) translate(-2.201493, -2.000000) " cx="2.20149254" cy="2" rx="2" ry="2.20149254"></ellipse>
                    <ellipse id="Oval" cx="30.8208955" cy="2" rx="2.20149254" ry="2"></ellipse>
                    <ellipse id="Oval" cx="59" cy="2" rx="2.20149254" ry="2"></ellipse>
                    <ellipse id="Oval" cx="87.1791045" cy="2" rx="2.20149254" ry="2"></ellipse>
                    <ellipse id="Oval" cx="115.358209" cy="2" rx="2.20149254" ry="2"></ellipse>
                </g>
                <g id="Group" transform="translate(56.000000, 68.000000)">
                    <circle id="Oval" transform="translate(2.000000, 2.000000) rotate(-270.000000) translate(-2.000000, -2.000000) " cx="2" cy="2" r="2"></circle>
                    <circle id="Oval" cx="33" cy="2" r="2"></circle>
                    <circle id="Oval" cx="63" cy="2" r="2"></circle>
                    <circle id="Oval" cx="94" cy="2" r="2"></circle>
                    <circle id="Oval" cx="122" cy="2" r="2"></circle>
                </g>
                <g id="Group-5" transform="translate(55.000000, 101.000000)">
                    <ellipse id="Oval" transform="translate(3.000000, 2.000000) rotate(-270.000000) translate(-3.000000, -2.000000) " cx="3" cy="2" rx="2" ry="2.20149254"></ellipse>
                    <ellipse id="Oval" cx="34.2014925" cy="2" rx="2.20149254" ry="2"></ellipse>
                    <ellipse id="Oval" cx="64.2014925" cy="2" rx="2.20149254" ry="2"></ellipse>
                    <ellipse id="Oval" cx="95.2014925" cy="2" rx="2.20149254" ry="2"></ellipse>
                    <ellipse id="Oval" cx="123.201493" cy="2" rx="2.20149254" ry="2"></ellipse>
                </g>
                <g id="Group-5" transform="translate(55.000000, 134.000000)">
                    <ellipse id="Oval" transform="translate(3.000000, 2.000000) rotate(-270.000000) translate(-3.000000, -2.000000) " cx="3" cy="2" rx="2" ry="2.20149254"></ellipse>
                    <ellipse id="Oval" cx="34.2014925" cy="2" rx="2.20149254" ry="2"></ellipse>
                    <ellipse id="Oval" cx="64.2014925" cy="2" rx="2.20149254" ry="2"></ellipse>
                    <ellipse id="Oval" cx="95.2014925" cy="2" rx="2.20149254" ry="2"></ellipse>
                    <ellipse id="Oval" cx="123.201493" cy="2" rx="2.20149254" ry="2"></ellipse>
                </g>
                <circle id="Oval" transform="translate(178.000000, 3.000000) rotate(-270.000000) translate(-178.000000, -3.000000) " cx="178" cy="3" r="2"></circle>
                <circle id="Oval" transform="translate(178.000000, 36.000000) rotate(-270.000000) translate(-178.000000, -36.000000) " cx="178" cy="36" r="2"></circle>
                <circle id="Oval" transform="translate(150.000000, 3.000000) rotate(-270.000000) translate(-150.000000, -3.000000) " cx="150" cy="3" r="2"></circle>
                <circle id="Oval" transform="translate(150.000000, 36.000000) rotate(-270.000000) translate(-150.000000, -36.000000) " cx="150" cy="36" r="2"></circle>
                <circle id="Oval" transform="translate(119.000000, 3.000000) rotate(-270.000000) translate(-119.000000, -3.000000) " cx="119" cy="3" r="2"></circle>
                <circle id="Oval" transform="translate(119.000000, 36.000000) rotate(-270.000000) translate(-119.000000, -36.000000) " cx="119" cy="36" r="2"></circle>
                <circle id="Oval" transform="translate(89.000000, 3.000000) rotate(-270.000000) translate(-89.000000, -3.000000) " cx="89" cy="3" r="2"></circle>
                <circle id="Oval" transform="translate(89.000000, 36.000000) rotate(-270.000000) translate(-89.000000, -36.000000) " cx="89" cy="36" r="2"></circle>
                <circle id="Oval" transform="translate(58.000000, 3.000000) rotate(-270.000000) translate(-58.000000, -3.000000) " cx="58" cy="3" r="2"></circle>
                <circle id="Oval" transform="translate(58.000000, 36.000000) rotate(-270.000000) translate(-58.000000, -36.000000) " cx="58" cy="36" r="2"></circle>
                <circle id="Oval" transform="translate(30.000000, 3.000000) rotate(-270.000000) translate(-30.000000, -3.000000) " cx="30" cy="3" r="2"></circle>
                <circle id="Oval" transform="translate(30.000000, 36.000000) rotate(-270.000000) translate(-30.000000, -36.000000) " cx="30" cy="36" r="2"></circle>
                <circle id="Oval" transform="translate(2.000000, 36.000000) rotate(-540.000000) translate(-2.000000, -36.000000) " cx="2" cy="36" r="2"></circle>
                <circle id="Oval" transform="translate(2.000000, 2.000000) rotate(-540.000000) translate(-2.000000, -2.000000) " cx="2" cy="2" r="2"></circle>
                <circle id="Oval" cx="240" cy="3" r="2"></circle>
                <circle id="Oval" cx="240" cy="36" r="2"></circle>
                <circle id="Oval" cx="268" cy="3" r="2"></circle>
                <circle id="Oval" cx="268" cy="36" r="2"></circle>
                <circle id="Oval" cx="296" cy="3" r="2"></circle>
                <circle id="Oval" cx="296" cy="36" r="2"></circle>
                <circle id="Oval" cx="324" cy="3" r="2"></circle>
                <circle id="Oval" cx="324" cy="36" r="2"></circle>
                <circle id="Oval" transform="translate(30.000000, 70.000000) rotate(-270.000000) translate(-30.000000, -70.000000) " cx="30" cy="70" r="2"></circle>
                <circle id="Oval" transform="translate(30.000000, 103.000000) rotate(-270.000000) translate(-30.000000, -103.000000) " cx="30" cy="103" r="2"></circle>
                <circle id="Oval" transform="translate(30.000000, 136.000000) rotate(-270.000000) translate(-30.000000, -136.000000) " cx="30" cy="136" r="2"></circle>
                <circle id="Oval" transform="translate(2.000000, 136.000000) rotate(-540.000000) translate(-2.000000, -136.000000) " cx="2" cy="136" r="2"></circle>
                <circle id="Oval" transform="translate(2.000000, 103.000000) rotate(-540.000000) translate(-2.000000, -103.000000) " cx="2" cy="103" r="2"></circle>
                <circle id="Oval" transform="translate(2.000000, 71.000000) rotate(-540.000000) translate(-2.000000, -71.000000) " cx="2" cy="71" r="2"></circle>
                <circle id="Oval" transform="translate(211.000000, 3.000000) rotate(-270.000000) translate(-211.000000, -3.000000) " cx="211" cy="3" r="2"></circle>
                <circle id="Oval" transform="translate(211.000000, 36.000000) rotate(-270.000000) translate(-211.000000, -36.000000) " cx="211" cy="36" r="2"></circle>
                <g id="Group" transform="translate(209.000000, 68.000000)">
                    <circle id="Oval" transform="translate(2.000000, 2.000000) rotate(-270.000000) translate(-2.000000, -2.000000) " cx="2" cy="2" r="2"></circle>
                    <circle id="Oval" cx="31" cy="2" r="2"></circle>
                    <circle id="Oval" cx="59" cy="2" r="2"></circle>
                    <circle id="Oval" cx="87" cy="2" r="2"></circle>
                    <circle id="Oval" cx="115" cy="2" r="2"></circle>
                </g>
                <g id="Group-5" transform="translate(209.000000, 101.000000)">
                    <ellipse id="Oval" transform="translate(2.201493, 2.000000) rotate(-270.000000) translate(-2.201493, -2.000000) " cx="2.20149254" cy="2" rx="2" ry="2.20149254"></ellipse>
                    <ellipse id="Oval" cx="30.8208955" cy="2" rx="2.20149254" ry="2"></ellipse>
                    <ellipse id="Oval" cx="59" cy="2" rx="2.20149254" ry="2"></ellipse>
                    <ellipse id="Oval" cx="87.1791045" cy="2" rx="2.20149254" ry="2"></ellipse>
                    <ellipse id="Oval" cx="115.358209" cy="2" rx="2.20149254" ry="2"></ellipse>
                </g>
                <g id="Group-5" transform="translate(209.000000, 134.000000)">
                    <ellipse id="Oval" transform="translate(2.201493, 2.000000) rotate(-270.000000) translate(-2.201493, -2.000000) " cx="2.20149254" cy="2" rx="2" ry="2.20149254"></ellipse>
                    <ellipse id="Oval" cx="30.8208955" cy="2" rx="2.20149254" ry="2"></ellipse>
                    <ellipse id="Oval" cx="59" cy="2" rx="2.20149254" ry="2"></ellipse>
                    <ellipse id="Oval" cx="87.1791045" cy="2" rx="2.20149254" ry="2"></ellipse>
                    <ellipse id="Oval" cx="115.358209" cy="2" rx="2.20149254" ry="2"></ellipse>
                </g>
                <g id="Group" transform="translate(56.000000, 68.000000)">
                    <circle id="Oval" transform="translate(2.000000, 2.000000) rotate(-270.000000) translate(-2.000000, -2.000000) " cx="2" cy="2" r="2"></circle>
                    <circle id="Oval" cx="33" cy="2" r="2"></circle>
                    <circle id="Oval" cx="63" cy="2" r="2"></circle>
                    <circle id="Oval" cx="94" cy="2" r="2"></circle>
                    <circle id="Oval" cx="122" cy="2" r="2"></circle>
                </g>
                <g id="Group-5" transform="translate(55.000000, 101.000000)">
                    <ellipse id="Oval" transform="translate(3.000000, 2.000000) rotate(-270.000000) translate(-3.000000, -2.000000) " cx="3" cy="2" rx="2" ry="2.20149254"></ellipse>
                    <ellipse id="Oval" cx="34.2014925" cy="2" rx="2.20149254" ry="2"></ellipse>
                    <ellipse id="Oval" cx="64.2014925" cy="2" rx="2.20149254" ry="2"></ellipse>
                    <ellipse id="Oval" cx="95.2014925" cy="2" rx="2.20149254" ry="2"></ellipse>
                    <ellipse id="Oval" cx="123.201493" cy="2" rx="2.20149254" ry="2"></ellipse>
                </g>
                <g id="Group-5" transform="translate(55.000000, 134.000000)">
                    <ellipse id="Oval" transform="translate(3.000000, 2.000000) rotate(-270.000000) translate(-3.000000, -2.000000) " cx="3" cy="2" rx="2" ry="2.20149254"></ellipse>
                    <ellipse id="Oval" cx="34.2014925" cy="2" rx="2.20149254" ry="2"></ellipse>
                    <ellipse id="Oval" cx="64.2014925" cy="2" rx="2.20149254" ry="2"></ellipse>
                    <ellipse id="Oval" cx="95.2014925" cy="2" rx="2.20149254" ry="2"></ellipse>
                    <ellipse id="Oval" cx="123.201493" cy="2" rx="2.20149254" ry="2"></ellipse>
                </g>
                <circle id="Oval" transform="translate(178.000000, 3.000000) rotate(-270.000000) translate(-178.000000, -3.000000) " cx="178" cy="3" r="2"></circle>
                <circle id="Oval" transform="translate(178.000000, 36.000000) rotate(-270.000000) translate(-178.000000, -36.000000) " cx="178" cy="36" r="2"></circle>
                <circle id="Oval" transform="translate(150.000000, 3.000000) rotate(-270.000000) translate(-150.000000, -3.000000) " cx="150" cy="3" r="2"></circle>
                <circle id="Oval" transform="translate(150.000000, 36.000000) rotate(-270.000000) translate(-150.000000, -36.000000) " cx="150" cy="36" r="2"></circle>
                <circle id="Oval" transform="translate(119.000000, 3.000000) rotate(-270.000000) translate(-119.000000, -3.000000) " cx="119" cy="3" r="2"></circle>
                <circle id="Oval" transform="translate(119.000000, 36.000000) rotate(-270.000000) translate(-119.000000, -36.000000) " cx="119" cy="36" r="2"></circle>
                <circle id="Oval" transform="translate(89.000000, 3.000000) rotate(-270.000000) translate(-89.000000, -3.000000) " cx="89" cy="3" r="2"></circle>
                <circle id="Oval" transform="translate(89.000000, 36.000000) rotate(-270.000000) translate(-89.000000, -36.000000) " cx="89" cy="36" r="2"></circle>
                <circle id="Oval" transform="translate(58.000000, 3.000000) rotate(-270.000000) translate(-58.000000, -3.000000) " cx="58" cy="3" r="2"></circle>
                <circle id="Oval" transform="translate(58.000000, 36.000000) rotate(-270.000000) translate(-58.000000, -36.000000) " cx="58" cy="36" r="2"></circle>
                <circle id="Oval" transform="translate(30.000000, 3.000000) rotate(-270.000000) translate(-30.000000, -3.000000) " cx="30" cy="3" r="2"></circle>
                <circle id="Oval" transform="translate(30.000000, 36.000000) rotate(-270.000000) translate(-30.000000, -36.000000) " cx="30" cy="36" r="2"></circle>
                <circle id="Oval" transform="translate(2.000000, 36.000000) rotate(-540.000000) translate(-2.000000, -36.000000) " cx="2" cy="36" r="2"></circle>
                <circle id="Oval" transform="translate(2.000000, 2.000000) rotate(-540.000000) translate(-2.000000, -2.000000) " cx="2" cy="2" r="2"></circle>
                <circle id="Oval" cx="240" cy="3" r="2"></circle>
                <circle id="Oval" cx="240" cy="36" r="2"></circle>
                <circle id="Oval" cx="268" cy="3" r="2"></circle>
                <circle id="Oval" cx="268" cy="36" r="2"></circle>
                <circle id="Oval" cx="296" cy="3" r="2"></circle>
                <circle id="Oval" cx="296" cy="36" r="2"></circle>
                <circle id="Oval" cx="324" cy="3" r="2"></circle>
                <circle id="Oval" cx="324" cy="36" r="2"></circle>
                <circle id="Oval" transform="translate(30.000000, 70.000000) rotate(-270.000000) translate(-30.000000, -70.000000) " cx="30" cy="70" r="2"></circle>
                <circle id="Oval" transform="translate(30.000000, 103.000000) rotate(-270.000000) translate(-30.000000, -103.000000) " cx="30" cy="103" r="2"></circle>
                <circle id="Oval" transform="translate(30.000000, 136.000000) rotate(-270.000000) translate(-30.000000, -136.000000) " cx="30" cy="136" r="2"></circle>
                <circle id="Oval" transform="translate(2.000000, 136.000000) rotate(-540.000000) translate(-2.000000, -136.000000) " cx="2" cy="136" r="2"></circle>
                <circle id="Oval" transform="translate(2.000000, 103.000000) rotate(-540.000000) translate(-2.000000, -103.000000) " cx="2" cy="103" r="2"></circle>
                <circle id="Oval" transform="translate(2.000000, 71.000000) rotate(-540.000000) translate(-2.000000, -71.000000) " cx="2" cy="71" r="2"></circle>
            </g>
        </g>
    </g>
</svg>