<?xml version="1.0" encoding="utf-8"?>
<!-- Generator: Adobe Illustrator 21.0.0, SVG Export Plug-In . SVG Version: 6.00 Build 0)  -->
<svg version="1.1" id="Layer_1" xmlns="http://www.w3.org/2000/svg" xmlns:xlink="http://www.w3.org/1999/xlink" x="0px" y="0px"
	 viewBox="0 0 24 24" style="enable-background:new 0 0 24 24;" xml:space="preserve">
<style type="text/css">
	.st0{fill:#333BD6;}
	.st1{fill:#FFFFFF;}
	.st2{fill:#1D1D1B;}
</style>
<title>1</title>
<g id="Camada_1">
	<circle class="st0" cx="12" cy="12" r="12"/>
	<circle class="st1" cx="12" cy="12" r="8.9"/>
	<path class="st2" d="M5.7,12.1l2.9,4.2c0.1,0.2,0.3,0.2,0.5,0.1c0,0,0.1-0.1,0.1-0.1l2.9-4.2c0.1-0.2,0.1-0.4-0.1-0.5
		c-0.1,0-0.1-0.1-0.2-0.1h-1.4V9.9c0-0.9,0.7-1.7,1.6-1.7l0,0c0.9,0,1.7,0.8,1.7,1.7l0,0v7.7c0,0.3,0.3,0.6,0.6,0.6h0H16
		c0.3,0,0.6-0.3,0.6-0.6l0,0V9.9c0-2.5-2-4.6-4.6-4.6c0,0,0,0,0,0l0,0c-2.5,0-4.6,2.1-4.6,4.6v1.6H6c-0.2,0-0.4,0.1-0.4,0.3
		C5.6,11.9,5.6,12,5.7,12.1z"/>
</g>
</svg>
