<?xml version="1.0" encoding="UTF-8"?>
<svg width="70px" height="16px" viewBox="0 0 70 16" version="1.1" xmlns="http://www.w3.org/2000/svg" xmlns:xlink="http://www.w3.org/1999/xlink">
    <!-- Generator: Sketch 53.2 (72643) - https://sketchapp.com -->
    <title>Group 13</title>
    <desc>Created with Sketch.</desc>
    <defs>
        <polygon id="path-1" points="0 0.162066667 13.74793 0.162066667 13.74793 15.6294 0 15.6294"></polygon>
        <polygon id="path-3" points="0.299490909 0.00367058824 7.88363636 0.00367058824 7.88363636 11.6076706 0.299490909 11.6076706"></polygon>
    </defs>
    <g id="Catálogo---Final-D/M" stroke="none" stroke-width="1" fill="none" fill-rule="evenodd">
        <g id="Explore---03.2---desktop---descontos" transform="translate(-133.000000, -50.000000)">
            <g id="Group-13" transform="translate(133.000000, 50.000000)">
                <g id="Group-3">
                    <mask id="mask-2" fill="white">
                        <use xlink:href="#path-1"></use>
                    </mask>
                    <g id="Clip-2"></g>
                    <path d="M3.45023,13.0047333 L7.11053,13.0047333 C8.30963,13.0047333 9.14753,12.8140667 9.62493,12.4340667 C10.01693,12.1194 10.21363,11.6154 10.21363,10.9214 C10.21363,10.0860667 9.90143,9.5154 9.27773,9.20806667 C8.80103,8.97406667 8.07863,8.8574 7.11053,8.8574 L3.45023,8.8574 L3.45023,13.0047333 Z M3.45023,6.25273333 L7.15253,6.25273333 C8.07863,6.25273333 8.73733,6.11273333 9.13003,5.83206667 C9.53673,5.5514 9.74043,5.11073333 9.74043,4.5094 C9.74043,3.7814 9.42823,3.2874 8.80383,3.02673333 C8.42513,2.86673333 7.87493,2.78606667 7.15253,2.78606667 L3.45023,2.78606667 L3.45023,6.25273333 Z M-7e-05,15.6294 L-7e-05,0.162066667 L7.80493,0.162066667 C9.36873,0.162066667 10.60633,0.438733333 11.51773,0.9934 C12.66083,1.6814 13.23273,2.71273333 13.23273,4.08873333 C13.23273,5.65806667 12.53483,6.7634 11.13903,7.40473333 C12.87853,8.06606667 13.74793,9.25806667 13.74793,10.9807333 C13.74793,14.0800667 11.51493,15.6294 7.04753,15.6294 L-7e-05,15.6294 Z" id="Fill-1" fill="#020203" mask="url(#mask-2)"></path>
                </g>
                <polygon id="Fill-4" fill="#020203" points="16 16 16 0 20.9268949 0 25.0828851 11.8856946 29.1831296 0 34 0 34 16 30.5173594 16 30.5173594 4.60118098 26.5051345 16 23.4948655 16 19.4613692 4.60118098 19.4613692 16"></polygon>
                <path d="M47.8654582,7.71927398 L44.8586213,8.46741573 C44.6930314,7.89904927 44.4819043,7.4662057 44.2266198,7.16888505 C43.8395534,6.72566984 43.3172552,6.50371651 42.6611052,6.50371651 C41.8241862,6.50371651 41.1956344,6.85358686 40.7740701,7.55332757 C40.4070125,8.15557476 40.2241736,8.98668971 40.2241736,10.0466724 C40.2241736,11.120484 40.431851,11.9654278 40.8465157,12.5815039 C41.2542809,13.1844425 41.8483347,13.4859118 42.6293671,13.4859118 C43.4241987,13.4859118 44.0327416,13.1844425 44.454306,12.5815039 C44.7033808,12.2281763 44.8724205,11.79879 44.962115,11.2933449 L48,12.0622299 C47.1706705,14.6876404 45.3636706,16 42.5776203,16 C40.8706642,16 39.5328357,15.5187554 38.5655146,14.5562662 C37.5216082,13.5170268 37,12.0207433 37,10.0674157 C37,8.32221262 37.4526124,6.90890233 38.3578373,5.82817632 C39.3672458,4.60916162 40.8154676,4 42.7025027,4 C44.6095465,4 45.9956721,4.5227312 46.8594995,5.56888505 C47.3224613,6.12964564 47.6577808,6.84667243 47.8654582,7.71927398" id="Fill-6" fill="#020203"></path>
                <path d="M56.3684912,10.4 L54.0697231,10.7429559 C52.7823851,10.9365601 52.1383668,11.5083838 52.1383668,12.4570441 C52.1383668,12.8587727 52.2647955,13.1775281 52.516256,13.4126188 C52.7963551,13.6760588 53.1917069,13.8081245 53.7023114,13.8081245 C54.4161798,13.8081245 55.0287656,13.631115 55.5393701,13.2777874 C56.0918847,12.8968021 56.3684912,12.3706137 56.3684912,11.6985307 L56.3684912,10.4 Z M56.3684912,8.36369922 L56.3684912,7.87554019 C56.3684912,6.82247191 55.731458,6.29559205 54.4580899,6.29559205 C53.7302515,6.29559205 53.1742443,6.47260156 52.7893701,6.82592913 C52.5798197,7.02644771 52.3905258,7.31063094 52.2221869,7.67778738 L49.4519304,6.92964564 C49.6544958,6.21607606 50.0777877,5.61037165 50.7218059,5.11114952 C51.6731648,4.36992221 52.9849505,4 54.6578613,4 C56.4488189,4 57.736157,4.36369922 58.520574,5.09040622 C59.2058039,5.72100259 59.5487681,6.65583405 59.5487681,7.89559205 L59.5487681,13.1948142 C59.5487681,14.088159 59.6996444,14.8950735 60,15.6155575 L57.009017,15.6155575 C56.8763018,15.1861711 56.7987681,14.8017286 56.7778131,14.4622299 C56.1624333,15.0167675 55.6022352,15.40121 55.0986157,15.6155575 C54.490221,15.872083 53.740729,16 52.8522352,16 C51.7115824,16 50.7986411,15.719274 50.1127127,15.1585134 C49.3709042,14.5486603 49,13.6864304 49,12.5718237 C49,11.2414866 49.486157,10.2713915 50.4591694,9.6622299 C51.0466091,9.28815903 51.9567564,9.01089023 53.1882144,8.83111495 L56.3684912,8.36369922 Z" id="Fill-8" fill="#020203"></path>
                <g id="Group-12" transform="translate(62.000000, 4.000000)">
                    <mask id="mask-4" fill="white">
                        <use xlink:href="#path-3"></use>
                    </mask>
                    <g id="Clip-11"></g>
                    <path d="M0.299490909,11.6076706 L0.299490909,0.141317647 L3.52349091,0.141317647 L3.69803636,2.15661176 C3.92421818,1.63355294 4.16785455,1.21990588 4.4304,0.915670588 C4.95476364,0.3072 5.68712727,0.00367058824 6.62676364,0.00367058824 C6.98385455,0.00367058824 7.40276364,0.0495529412 7.88421818,0.141317647 L7.59985455,2.8992 C7.04567273,2.82790588 6.62312727,2.79331765 6.33221818,2.79331765 C5.50894545,2.79331765 4.86021818,3.08272941 4.38676364,3.66296471 C3.92785455,4.22131765 3.69803636,4.98861176 3.69803636,5.96484706 L3.69803636,11.6076706 L0.299490909,11.6076706 Z" id="Fill-10" fill="#020203" mask="url(#mask-4)"></path>
                </g>
            </g>
        </g>
    </g>
</svg>